<?xml version="1.0" encoding="iso-8859-1"?>
<!-- Generator: Adobe Illustrator 23.0.1, SVG Export Plug-In . SVG Version: 6.00 Build 0)  -->
<svg version="1.1" id="Layer_1" xmlns="http://www.w3.org/2000/svg" xmlns:xlink="http://www.w3.org/1999/xlink" x="0px" y="0px"
	 viewBox="0 0 432 432" style="enable-background:new 0 0 432 432;" xml:space="preserve">
<g>
	<path style="fill:#403B5F;" d="M196.109,167.999l32.207,40.809l-34.163,43.904c0,0,22.732,0.107,34.1,0.121
		c8.409,0.01,13.824-4.025,16.421-12.037c0.954-2.95,2.248-5.788,3.565-9.135c4.301,0.886,13.35,2.742,13.35,2.742l-6.893,43.565
		l-99.453,0.412v-11.141l43.502-52.27l-43.502-54.328v-11.756h97.366l3.521,40.988h-14.764c-0.417-1.826-0.92-3.909-1.371-6.001
		c-0.465-2.17-0.702-4.408-1.351-6.525c-1.952-6.326-5.004-8.951-11.567-9.203c-7.799-0.305-15.621-0.121-23.43-0.145
		C201.66,167.994,196.109,167.999,196.109,167.999"/>
</g>
<polygon style="fill:#403B5F;" points="275.733,149.001 275.733,167.998 291.156,170.411 291.02,261.751 275.733,264.158 
	275.733,278.268 333.069,278.268 333.069,264.158 317.777,261.751 317.646,170.411 364.147,170.411 364.011,261.751 
	348.724,264.158 348.724,278.268 406.061,278.268 406.061,264.158 390.769,261.751 390.633,170.411 406.061,167.998 
	406.061,149.001 "/>
<rect x="37.935" y="266.93" style="fill:#403B5F;" width="30.468" height="6.694"/>
<rect x="103.893" y="266.93" style="fill:#403B5F;" width="30.472" height="6.694"/>
<g>
	<path style="fill:#403B5F;" d="M82.924,194.823l3.037-2.209c0.107-0.077,0.257-0.077,0.368,0l3.037,2.209
		c0.247,0.179,0.576-0.063,0.48-0.349l-1.163-3.575c-0.039-0.126,0.005-0.271,0.116-0.349l3.042-2.204
		c0.247-0.179,0.121-0.567-0.184-0.567h-3.754c-0.136,0-0.257-0.087-0.3-0.218l-1.163-3.57c-0.092-0.286-0.499-0.286-0.596,0.005
		l-1.153,3.565c-0.044,0.131-0.165,0.218-0.3,0.218h-3.754c-0.305,0-0.431,0.388-0.184,0.567l3.032,2.204
		c0.111,0.077,0.155,0.223,0.116,0.349l-1.163,3.575C82.348,194.76,82.677,195.002,82.924,194.823"/>
	<path style="fill:#403B5F;" d="M59.677,232.249l-1.158-3.57c-0.092-0.286-0.499-0.286-0.596,0l-1.163,3.57
		c-0.039,0.131-0.16,0.218-0.295,0.218h-3.754c-0.305,0-0.431,0.387-0.184,0.567l3.032,2.204c0.111,0.082,0.155,0.223,0.116,0.349
		l-1.158,3.575c-0.097,0.286,0.237,0.528,0.48,0.349l3.042-2.209c0.107-0.077,0.257-0.077,0.368,0l3.032,2.209
		c0.247,0.174,0.576-0.063,0.484-0.354l-1.163-3.57c-0.039-0.126,0.005-0.266,0.116-0.349l3.032-2.204
		c0.247-0.179,0.121-0.567-0.184-0.567h-3.749C59.841,232.467,59.72,232.38,59.677,232.249"/>
	<path style="fill:#403B5F;" d="M78.298,232.25l-1.163-3.57c-0.092-0.291-0.499-0.291-0.596,0l-1.158,3.57
		c-0.044,0.131-0.165,0.218-0.3,0.218h-3.749c-0.305,0-0.431,0.387-0.184,0.567l3.032,2.204c0.107,0.077,0.155,0.223,0.111,0.349
		l-1.158,3.57c-0.092,0.291,0.237,0.533,0.484,0.354l3.037-2.209c0.111-0.077,0.257-0.077,0.368,0l3.032,2.209
		c0.247,0.174,0.576-0.063,0.484-0.354l-1.163-3.57c-0.039-0.126,0.005-0.271,0.116-0.349l3.037-2.204
		c0.247-0.179,0.121-0.567-0.184-0.567h-3.749C78.458,232.468,78.341,232.381,78.298,232.25"/>
	<path style="fill:#403B5F;" d="M96.913,232.25l-1.158-3.57c-0.097-0.286-0.504-0.286-0.596,0l-1.163,3.57
		c-0.044,0.131-0.16,0.218-0.295,0.218h-3.754c-0.3,0-0.426,0.387-0.184,0.567l3.037,2.204c0.111,0.077,0.16,0.223,0.116,0.349
		l-1.163,3.57c-0.092,0.291,0.237,0.528,0.484,0.349l3.032-2.204c0.111-0.077,0.262-0.077,0.368,0l3.042,2.209
		c0.247,0.179,0.576-0.063,0.48-0.354l-1.158-3.57c-0.044-0.126,0-0.271,0.111-0.349l3.037-2.204
		c0.247-0.179,0.121-0.567-0.184-0.567h-3.754C97.077,232.468,96.956,232.381,96.913,232.25"/>
	<path style="fill:#403B5F;" d="M119.585,232.466h-3.759c-0.136,0-0.252-0.087-0.295-0.218l-1.158-3.565
		c-0.092-0.291-0.504-0.291-0.596,0l-1.163,3.565c-0.039,0.131-0.16,0.218-0.295,0.218h-3.749c-0.305,0-0.431,0.388-0.184,0.567
		l3.037,2.204c0.107,0.082,0.155,0.223,0.111,0.354l-1.163,3.57c-0.092,0.286,0.237,0.528,0.484,0.349l3.037-2.204
		c0.107-0.082,0.257-0.082,0.368,0l3.032,2.204c0.247,0.179,0.576-0.063,0.484-0.354l-1.163-3.565
		c-0.044-0.131,0.005-0.271,0.116-0.354l3.037-2.204C120.016,232.854,119.89,232.466,119.585,232.466"/>
	<path style="fill:#403B5F;" d="M70.064,219.383l3.037-2.204c0.247-0.179,0.121-0.567-0.184-0.567h-3.749
		c-0.136,0-0.257-0.092-0.3-0.218l-1.163-3.57c-0.092-0.291-0.499-0.291-0.596,0l-1.163,3.57c-0.039,0.126-0.16,0.218-0.295,0.218
		h-3.749c-0.305,0-0.431,0.387-0.184,0.567l3.032,2.204c0.111,0.077,0.155,0.223,0.116,0.349l-1.163,3.57
		c-0.092,0.291,0.237,0.533,0.484,0.354l3.037-2.209c0.111-0.077,0.257-0.077,0.368,0l3.032,2.209
		c0.247,0.174,0.576-0.063,0.484-0.354l-1.163-3.57C69.909,219.605,69.953,219.46,70.064,219.383"/>
	<path style="fill:#403B5F;" d="M107.542,219.383l3.037-2.204c0.247-0.179,0.121-0.567-0.184-0.567h-3.754
		c-0.136,0-0.257-0.092-0.295-0.218l-1.163-3.57c-0.092-0.291-0.504-0.291-0.596,0l-1.158,3.57c-0.044,0.126-0.165,0.218-0.3,0.218
		h-3.749c-0.305,0-0.431,0.387-0.184,0.567l3.037,2.204c0.111,0.077,0.155,0.223,0.111,0.349l-1.158,3.57
		c-0.097,0.291,0.237,0.528,0.48,0.354l3.032-2.209c0.111-0.077,0.262-0.077,0.368,0l3.042,2.209
		c0.247,0.179,0.576-0.063,0.484-0.354l-1.163-3.57C107.387,219.605,107.431,219.46,107.542,219.383"/>
	<path style="fill:#403B5F;" d="M88.807,219.383l3.037-2.204c0.242-0.179,0.116-0.567-0.184-0.567h-3.754
		c-0.136,0-0.257-0.092-0.295-0.218l-1.163-3.57c-0.092-0.291-0.499-0.291-0.596,0l-1.158,3.57c-0.044,0.126-0.165,0.218-0.3,0.218
		H80.64c-0.3,0-0.426,0.387-0.184,0.567l3.037,2.204c0.107,0.077,0.155,0.223,0.111,0.349l-1.158,3.57
		c-0.097,0.291,0.237,0.533,0.48,0.354l3.042-2.209c0.111-0.077,0.257-0.077,0.368,0l3.032,2.209
		c0.247,0.174,0.576-0.063,0.484-0.354l-1.163-3.57C88.652,219.605,88.696,219.46,88.807,219.383"/>
	<path style="fill:#403B5F;" d="M72.837,208.516l3.042-2.209c0.107-0.077,0.257-0.077,0.368,0l3.032,2.209
		c0.242,0.179,0.576-0.063,0.48-0.349l-1.158-3.57c-0.044-0.131,0.005-0.271,0.116-0.354l3.032-2.204
		c0.247-0.174,0.121-0.567-0.184-0.567h-3.749c-0.136,0-0.257-0.087-0.3-0.213l-1.158-3.57c-0.092-0.291-0.504-0.291-0.596,0
		l-1.163,3.57c-0.039,0.126-0.16,0.213-0.295,0.213h-3.754c-0.305,0-0.431,0.392-0.184,0.567l3.037,2.204
		c0.111,0.082,0.155,0.223,0.111,0.354l-1.158,3.57C72.26,208.454,72.59,208.696,72.837,208.516"/>
	<path style="fill:#403B5F;" d="M93.696,204.596l-1.158,3.57c-0.097,0.291,0.237,0.528,0.48,0.349l3.037-2.204
		c0.107-0.082,0.257-0.082,0.368,0l3.037,2.204c0.247,0.179,0.576-0.058,0.484-0.349l-1.163-3.57
		c-0.039-0.131,0.005-0.271,0.116-0.349l3.032-2.204c0.247-0.179,0.121-0.567-0.184-0.567h-3.754c-0.136,0-0.257-0.087-0.295-0.218
		l-1.163-3.57c-0.092-0.291-0.504-0.291-0.596,0l-1.158,3.57c-0.039,0.131-0.16,0.218-0.295,0.218h-3.754
		c-0.3,0-0.431,0.387-0.184,0.567l3.032,2.204C93.691,204.325,93.74,204.466,93.696,204.596"/>
</g>
<path style="fill:#403B5F;" d="M62.042,204.039l24.108-41.759l24.108,41.759l24.108,41.754H86.15H37.934L62.042,204.039z
	 M86.15,148.888l-5.803,10.046l-24.108,41.759l-24.108,41.754l-5.798,10.046h11.601H86.15h48.215h11.596l-5.798-10.046
	l-24.108-41.754l-24.108-41.759L86.15,148.888z"/>
<polygon style="fill:#403B5F;" points="82.793,262.176 82.793,266.918 78.046,266.918 78.046,273.632 82.793,273.632 
	82.793,278.379 89.506,278.379 89.506,273.632 94.249,273.632 94.249,266.918 89.506,266.918 89.506,262.176 "/>
</svg>
