<?xml version="1.0" encoding="iso-8859-1"?>
<!-- Generator: Adobe Illustrator 23.0.1, SVG Export Plug-In . SVG Version: 6.00 Build 0)  -->
<svg version="1.1" id="Layer_1" xmlns="http://www.w3.org/2000/svg" xmlns:xlink="http://www.w3.org/1999/xlink" x="0px" y="0px"
	 viewBox="0 0 612 288" style="enable-background:new 0 0 612 288;" xml:space="preserve">
<g>
	<path style="fill:#403B5F;" d="M350.954,235.798l7.225-17.633l7.225,17.633H350.954z M352.818,203.79l-23.304,54.767h12.197
		l4.972-12.197h22.994l4.972,12.197h12.511L363.85,203.79H352.818z M283.525,204.18h-12.896v54.378h11.732v-35.266l15.149,22.994
		h0.306l15.304-23.229v35.501h11.887V204.18h-12.896l-14.295,22.994L283.525,204.18z M184.868,242.478v-0.155
		c0-9.478-6.216-13.441-17.248-16.314c-9.399-2.408-11.732-3.573-11.732-7.15v-0.151c0-2.643,2.408-4.741,6.99-4.741
		c4.586,0,9.323,2.019,14.14,5.361l6.216-9.013c-5.516-4.427-12.272-6.911-20.196-6.911c-11.112,0-19.032,6.525-19.032,16.389v0.155
		c0,10.798,7.066,13.83,18.023,16.628c9.085,2.329,10.953,3.883,10.953,6.911v0.155c0,3.187-2.953,5.127-7.849,5.127
		c-6.211,0-11.338-2.563-16.234-6.601l-7.07,8.469c6.525,5.826,14.839,8.699,23.074,8.699
		C176.629,259.336,184.868,253.276,184.868,242.478 M191.934,258.557h11.962V204.18h-11.962V258.557z M239.71,203.25
		c-16.469,0-28.51,12.661-28.51,28.121v0.155c0,16.079,11.652,27.966,28.59,27.966c9.943,0,17.633-3.883,23.225-8.624v-23.614H239.4
		v10.333h12.042v7.765c-3.032,2.178-6.915,3.263-11.267,3.263c-9.633,0-16.469-7.3-16.469-17.244v-0.155
		c0-9.244,6.915-16.938,15.614-16.938c6.295,0,10.023,2.019,14.215,5.516l7.539-9.089C255.404,205.888,249.499,203.25,239.71,203.25
		 M440.573,223.367c0,4.662-3.497,8.234-9.478,8.234h-9.478v-16.624h9.244c5.985,0,9.713,2.873,9.713,8.234V223.367z
		 M452.69,223.136v-0.155c0-11.112-7.845-18.802-20.82-18.802h-22.215v54.378h11.962v-16.314h9.089
		C442.902,242.244,452.69,235.718,452.69,223.136 M470.172,204.18H458.21v54.378h11.962V204.18z"/>
	<path style="fill:#403B5F;" d="M328.366,184.224h38.403v-8.44h-38.403V184.224z M301.77,169.79v5.981h-5.981v8.461h5.981v5.985
		h8.461v-5.985h5.981v-8.461h-5.981v-5.981H301.77z M245.227,184.224h38.408v-8.44h-38.408V184.224z M287.324,132.346
		c-0.381,0-0.544,0.49-0.235,0.712l3.824,2.781l0.142,0.444l-1.462,4.498c-0.117,0.364,0.302,0.666,0.612,0.444l3.828-2.785
		l0.465,0.004l3.824,2.781c0.31,0.222,0.725-0.08,0.607-0.444l-1.462-4.498l0.147-0.444l3.824-2.781
		c0.31-0.222,0.151-0.712-0.23-0.712h-4.729l-0.377-0.272l-1.462-4.498c-0.117-0.369-0.632-0.369-0.75,0l-1.466,4.498l-0.377,0.272
		H287.324z M277.737,132.346h-4.725l-0.377-0.272l-1.458-4.498c-0.117-0.364-0.632-0.364-0.754,0l-1.462,4.498l-0.377,0.272h-4.733
		c-0.381,0-0.54,0.49-0.23,0.712l3.824,2.781l0.142,0.444l-1.458,4.498c-0.117,0.364,0.297,0.666,0.607,0.444l3.828-2.781h0.465
		l3.824,2.777c0.31,0.226,0.729-0.075,0.612-0.44l-1.462-4.498l0.142-0.444l3.824-2.781
		C278.282,132.836,278.123,132.346,277.737,132.346 M289.326,112.359h-4.729l-0.377-0.272l-1.466-4.498
		c-0.117-0.364-0.632-0.364-0.75,0l-1.466,4.498l-0.377,0.272h-4.724c-0.381,0-0.54,0.49-0.23,0.716l3.824,2.781l0.142,0.44
		l-1.462,4.503c-0.121,0.364,0.297,0.666,0.607,0.44l3.828-2.781h0.465l3.824,2.781c0.31,0.222,0.729-0.075,0.612-0.44l-1.466-4.503
		l0.147-0.44l3.828-2.781C289.867,112.849,289.708,112.359,289.326,112.359 M300.22,93.285h-4.725l-0.373-0.272l-1.462-4.503
		c-0.117-0.364-0.632-0.364-0.754,0l-1.462,4.503l-0.377,0.272h-4.729c-0.381,0-0.54,0.49-0.23,0.716l3.824,2.777l0.147,0.44
		l-1.466,4.498c-0.121,0.364,0.297,0.666,0.607,0.444l3.832-2.781h0.465l3.82,2.781c0.31,0.222,0.729-0.08,0.612-0.444l-1.462-4.498
		l0.142-0.44l3.824-2.777C300.765,93.775,300.606,93.285,300.22,93.285 M313.175,76.737c0.31-0.226,0.151-0.716-0.23-0.716h-4.733
		l-0.377-0.272l-1.466-4.498c-0.117-0.364-0.632-0.364-0.75,0l-1.458,4.498l-0.377,0.272h-4.729c-0.385,0-0.544,0.49-0.235,0.716
		l3.824,2.777l0.142,0.444l-1.462,4.498c-0.117,0.364,0.302,0.67,0.611,0.444l3.824-2.781h0.465l3.828,2.781
		c0.31,0.222,0.725-0.08,0.607-0.444l-1.466-4.498l0.147-0.444L313.175,76.737z M325.891,93.997c0.31-0.222,0.151-0.712-0.235-0.712
		h-4.725l-0.377-0.272l-1.462-4.503c-0.121-0.364-0.637-0.364-0.754,0l-1.458,4.503l-0.377,0.272h-4.724
		c-0.385,0-0.544,0.49-0.235,0.712l3.824,2.781l0.142,0.44l-1.462,4.498c-0.117,0.364,0.302,0.666,0.611,0.444l3.824-2.781h0.461
		l3.832,2.781c0.31,0.226,0.725-0.08,0.607-0.444l-1.462-4.498l0.142-0.44L325.891,93.997z M334.259,132.346
		c-0.381,0-0.54,0.49-0.23,0.712l3.824,2.781l0.142,0.444l-1.462,4.498c-0.117,0.364,0.297,0.666,0.607,0.444l3.828-2.785h0.461
		l3.828,2.781c0.31,0.226,0.729-0.075,0.607-0.44l-1.466-4.498l0.147-0.444l3.828-2.781c0.31-0.222,0.151-0.712-0.23-0.712h-4.733
		l-0.377-0.272l-1.458-4.498c-0.121-0.364-0.632-0.364-0.754,0l-1.462,4.498l-0.377,0.272H334.259z M324.953,120.799
		c-0.117,0.36,0.297,0.662,0.607,0.436l3.824-2.777h0.461l3.837,2.781c0.306,0.226,0.725-0.075,0.607-0.44l-1.466-4.503l0.142-0.44
		l3.828-2.781c0.31-0.226,0.151-0.716-0.23-0.716h-4.733l-0.377-0.272l-1.462-4.498c-0.117-0.364-0.632-0.364-0.75,0l-1.462,4.498
		l-0.373,0.272h-4.729c-0.385,0-0.54,0.49-0.235,0.716l3.828,2.781l0.142,0.44L324.953,120.799z M310.792,132.346
		c-0.385,0-0.544,0.49-0.23,0.712l3.824,2.781l0.147,0.444l-1.466,4.498c-0.121,0.364,0.297,0.666,0.607,0.44l3.828-2.777
		l0.461-0.004l3.832,2.785c0.31,0.222,0.725-0.08,0.607-0.444l-1.462-4.498l0.142-0.444l3.828-2.781
		c0.31-0.222,0.151-0.712-0.23-0.712h-4.737l-0.377-0.272l-1.462-4.498c-0.117-0.364-0.632-0.364-0.75,0l-1.462,4.498l-0.377,0.272
		H310.792z M305.774,118.458h0.461l3.824,2.781c0.31,0.222,0.729-0.075,0.612-0.44l-1.466-4.503l0.147-0.44l3.824-2.781
		c0.31-0.226,0.151-0.716-0.23-0.716h-4.729l-0.377-0.272l-1.462-4.498c-0.117-0.364-0.632-0.364-0.75,0l-1.462,4.498l-0.377,0.272
		h-4.729c-0.385,0-0.544,0.49-0.235,0.716l3.828,2.781l0.142,0.44l-1.466,4.503c-0.117,0.364,0.302,0.666,0.611,0.44
		L305.774,118.458z M366.77,149.146H306h-60.769l30.383-52.631L306,43.883l30.387,52.631L366.77,149.146z M366.77,157.585h14.622
		l-7.309-12.661l-30.387-52.631l-30.387-52.631L306,27l-7.309,12.661l-30.387,52.631l-30.387,52.631l-7.309,12.661h14.622H306
		H366.77z"/>
</g>
</svg>
