<?xml version="1.0" encoding="iso-8859-1"?>
<!-- Generator: Adobe Illustrator 23.0.1, SVG Export Plug-In . SVG Version: 6.00 Build 0)  -->
<svg version="1.1" id="Layer_1" xmlns="http://www.w3.org/2000/svg" xmlns:xlink="http://www.w3.org/1999/xlink" x="0px" y="0px"
	 viewBox="0 0 612 288" style="enable-background:new 0 0 612 288;" xml:space="preserve">
<g>
	<path style="fill:#403B5F;" d="M200.298,173.472c-8.678,0-17.438-3.029-24.315-9.169l7.451-8.924
		c5.157,4.257,10.56,6.959,17.109,6.959c5.158,0,8.269-2.047,8.269-5.403v-0.164c0-3.192-1.965-4.83-11.543-7.286
		c-11.543-2.947-18.993-6.14-18.993-17.519v-0.164c0-10.397,8.35-17.274,20.057-17.274c8.35,0,15.473,2.62,21.285,7.286
		l-6.549,9.497c-5.076-3.521-10.07-5.649-14.9-5.649s-7.368,2.21-7.368,4.994v0.163c0,3.766,2.457,4.994,12.362,7.532
		c11.625,3.029,18.175,7.204,18.175,17.192v0.164C221.338,167.086,212.659,173.472,200.298,173.472"/>
	<rect x="228.787" y="115.347" style="fill:#403B5F;" width="12.608" height="57.306"/>
	<path style="fill:#403B5F;" d="M279.217,173.636c-17.847,0-30.127-12.525-30.127-29.471V144c0-16.292,12.689-29.636,30.045-29.636
		c10.315,0,16.537,2.783,22.513,7.859l-7.941,9.578c-4.42-3.684-8.35-5.812-14.981-5.812c-9.169,0-16.456,8.105-16.456,17.847V144
		c0,10.479,7.205,18.174,17.356,18.174c4.584,0,8.678-1.146,11.871-3.439v-8.186h-12.689v-10.888h24.887v24.887
		C297.8,169.542,289.696,173.636,279.217,173.636"/>
	<polygon style="fill:#403B5F;" points="356.498,172.653 356.498,135.24 340.37,159.718 340.044,159.718 324.079,135.486 
		324.079,172.653 311.719,172.653 311.719,115.348 325.308,115.348 340.37,139.58 355.435,115.348 369.024,115.348 369.024,172.653 
			"/>
	<path style="fill:#403B5F;" d="M403.981,130.083l-7.614,18.584h15.228L403.981,130.083z M421.336,172.653l-5.238-12.853h-24.232
		l-5.24,12.853h-12.853l24.56-57.716h11.625l24.561,57.716H421.336z"/>
	<path style="fill:#403B5F;" d="M490.808,135.404c0-5.649-3.929-8.678-10.232-8.678h-9.741v17.519h9.987
		c6.304,0,9.986-3.765,9.986-8.678V135.404z M480.412,155.461h-9.578v17.192h-12.608v-57.306h23.413
		c13.673,0,21.941,8.104,21.941,19.811v0.164C503.58,148.584,493.265,155.461,480.412,155.461"/>
	<rect x="509.393" y="115.347" style="fill:#403B5F;" width="12.607" height="57.307"/>
	<rect x="97.183" y="177.007" style="fill:#403B5F;" width="18.871" height="4.147"/>
	<rect x="138.035" y="177.007" style="fill:#403B5F;" width="18.87" height="4.147"/>
	<path style="fill:#403B5F;" d="M125.048,132.35l1.88-1.367h0.228l1.881,1.367c0.152,0.11,0.357-0.038,0.299-0.217l-0.72-2.212
		l0.071-0.217l1.884-1.365c0.152-0.111,0.074-0.352-0.114-0.352h-2.326l-0.184-0.133l-0.72-2.21c-0.058-0.179-0.311-0.179-0.369,0
		l-0.716,2.209l-0.185,0.134h-2.325c-0.188,0-0.266,0.241-0.114,0.352l1.879,1.365l0.07,0.217l-0.718,2.212
		C124.691,132.312,124.896,132.461,125.048,132.35"/>
	<path style="fill:#403B5F;" d="M110.65,155.529l-0.716-2.21c-0.058-0.179-0.311-0.179-0.37,0l-0.719,2.21l-0.185,0.134h-2.324
		c-0.188,0-0.266,0.241-0.114,0.351l1.879,1.366l0.07,0.217l-0.717,2.212c-0.057,0.179,0.147,0.327,0.299,0.217l1.882-1.367h0.228
		l1.879,1.366c0.152,0.11,0.357-0.038,0.299-0.217l-0.718-2.211l0.07-0.217l1.88-1.366c0.152-0.11,0.073-0.351-0.115-0.351h-2.323
		L110.65,155.529"/>
	<path style="fill:#403B5F;" d="M122.183,155.529l-0.719-2.211c-0.058-0.179-0.311-0.179-0.369,0l-0.719,2.211l-0.185,0.134h-2.323
		c-0.187,0-0.266,0.241-0.114,0.351l1.879,1.366l0.07,0.217l-0.718,2.211c-0.058,0.179,0.147,0.328,0.299,0.217l1.882-1.367
		l0.228,0.001l1.879,1.366c0.152,0.11,0.357-0.039,0.299-0.217l-0.719-2.211l0.071-0.217l1.881-1.366
		c0.152-0.11,0.074-0.351-0.114-0.351h-2.323L122.183,155.529"/>
	<path style="fill:#403B5F;" d="M133.711,155.529l-0.718-2.211c-0.058-0.178-0.311-0.178-0.369,0l-0.719,2.211l-0.184,0.134h-2.322
		c-0.189,0-0.267,0.241-0.114,0.351l1.88,1.366l0.071,0.217l-0.719,2.21c-0.059,0.179,0.146,0.328,0.298,0.217l1.88-1.365
		l0.228-0.001l1.883,1.367c0.152,0.111,0.356-0.038,0.298-0.217l-0.719-2.211l0.07-0.217l1.882-1.366
		c0.152-0.11,0.074-0.351-0.114-0.351h-2.327L133.711,155.529"/>
	<path style="fill:#403B5F;" d="M147.753,155.663h-2.326l-0.185-0.134l-0.717-2.21c-0.058-0.179-0.31-0.179-0.369,0l-0.719,2.21
		l-0.185,0.134h-2.321c-0.188,0-0.266,0.241-0.114,0.351l1.88,1.366l0.07,0.217l-0.719,2.21c-0.058,0.179,0.147,0.328,0.299,0.218
		l1.88-1.367h0.228l1.88,1.366c0.152,0.111,0.357-0.038,0.299-0.217l-0.72-2.21l0.071-0.217l1.882-1.366
		C148.019,155.904,147.941,155.663,147.753,155.663"/>
	<path style="fill:#403B5F;" d="M117.083,147.561l1.882-1.366c0.152-0.111,0.074-0.351-0.114-0.351h-2.323l-0.185-0.134l-0.72-2.212
		c-0.058-0.179-0.311-0.179-0.369,0l-0.72,2.212l-0.185,0.134h-2.321c-0.188,0-0.266,0.24-0.114,0.351l1.879,1.366l0.07,0.217
		l-0.718,2.211c-0.059,0.179,0.146,0.328,0.298,0.217l1.882-1.367h0.228l1.879,1.367c0.152,0.11,0.357-0.038,0.299-0.217
		l-0.719-2.211L117.083,147.561"/>
	<path style="fill:#403B5F;" d="M140.294,147.561l1.881-1.366c0.152-0.111,0.073-0.351-0.114-0.351h-2.324l-0.185-0.134
		l-0.719-2.211c-0.058-0.179-0.311-0.179-0.369,0l-0.718,2.21l-0.184,0.135h-2.323c-0.188,0-0.266,0.24-0.114,0.351l1.881,1.366
		l0.07,0.217l-0.718,2.211c-0.058,0.178,0.146,0.327,0.298,0.216l1.878-1.366h0.228l1.883,1.367
		c0.152,0.111,0.357-0.038,0.299-0.217l-0.72-2.211L140.294,147.561"/>
	<path style="fill:#403B5F;" d="M128.691,147.561l1.88-1.366c0.152-0.111,0.074-0.351-0.114-0.351h-2.324l-0.184-0.135l-0.718-2.21
		c-0.058-0.179-0.311-0.179-0.369,0l-0.719,2.211l-0.184,0.134h-2.325c-0.188,0-0.266,0.24-0.114,0.351l1.88,1.366l0.07,0.217
		l-0.719,2.211c-0.058,0.179,0.147,0.328,0.299,0.217l1.883-1.367h0.228l1.879,1.367c0.152,0.11,0.357-0.038,0.299-0.217
		l-0.719-2.211L128.691,147.561"/>
	<path style="fill:#403B5F;" d="M118.8,140.831l1.883-1.367l0.228,0.001l1.878,1.366c0.152,0.11,0.357-0.038,0.299-0.217
		l-0.718-2.211l0.071-0.217l1.878-1.364c0.153-0.111,0.074-0.352-0.114-0.352h-2.322l-0.184-0.134l-0.718-2.211
		c-0.058-0.179-0.311-0.179-0.369,0l-0.719,2.211l-0.185,0.134h-2.324c-0.188,0-0.266,0.241-0.114,0.352l1.881,1.364l0.07,0.217
		l-0.719,2.211C118.443,140.792,118.648,140.941,118.8,140.831"/>
	<path style="fill:#403B5F;" d="M131.719,138.403l-0.718,2.211c-0.058,0.178,0.147,0.327,0.299,0.217l1.879-1.367h0.228l1.882,1.367
		c0.153,0.111,0.357-0.038,0.299-0.217l-0.718-2.211l0.07-0.217l1.878-1.365c0.153-0.11,0.074-0.351-0.114-0.351h-2.323
		l-0.185-0.134l-0.718-2.211c-0.059-0.179-0.312-0.179-0.37,0l-0.716,2.211l-0.185,0.134h-2.323c-0.188,0-0.267,0.241-0.115,0.351
		l1.879,1.365L131.719,138.403"/>
	<path style="fill:#403B5F;" d="M112.114,138.057l14.93-25.862l14.931,25.862l14.93,25.861h-29.861h-29.86L112.114,138.057z
		 M127.044,103.901l-3.591,6.221l-14.931,25.861l-14.93,25.861L90,168.065h7.184h29.86h29.861h7.184l-3.592-6.221l-14.93-25.861
		l-14.931-25.861L127.044,103.901z"/>
	<polygon style="fill:#403B5F;" points="124.966,174.062 124.966,177.001 122.027,177.001 122.027,181.159 124.966,181.159 
		124.966,184.099 129.123,184.099 129.123,181.159 132.063,181.159 132.063,177.001 129.123,177.001 129.123,174.062 	"/>
</g>
</svg>
