<?xml version="1.0" encoding="iso-8859-1"?>
<!-- Generator: Adobe Illustrator 23.0.1, SVG Export Plug-In . SVG Version: 6.00 Build 0)  -->
<svg version="1.1" id="Layer_1" xmlns="http://www.w3.org/2000/svg" xmlns:xlink="http://www.w3.org/1999/xlink" x="0px" y="0px"
	 viewBox="0 0 720 360" style="enable-background:new 0 0 720 360;" xml:space="preserve">
<g>
	<g id="hjehbZ.tif">
		<g>
			<path style="fill:#443E67;" d="M148.474,65.819l80.582,102.107l-85.472,109.851c0,0,56.873,0.266,85.31,0.303
				c21.046,0.028,34.597-10.075,41.092-30.114c2.392-7.38,5.625-14.488,8.922-22.855c10.765,2.209,33.4,6.855,33.4,6.855
				L295.06,340.97L46.217,342v-27.88l108.848-130.778L46.217,47.414V18h243.617l8.819,102.547c0,0-23.766,0-36.943,0
				c-1.049-4.564-2.306-9.772-3.431-15.009c-1.168-5.436-1.757-11.038-3.387-16.325c-4.882-15.831-12.509-22.402-28.932-23.036
				c-19.519-0.754-39.085-0.296-58.63-0.356C162.36,65.806,148.474,65.819,148.474,65.819z"/>
		</g>
	</g>
	<polygon style="fill:#443E67;" points="673.783,18.278 347.695,18.278 347.695,65.819 386.287,71.85 385.951,300.392 
		347.695,306.424 347.695,341.721 491.152,341.721 491.152,306.424 452.896,300.392 452.56,71.85 568.918,71.85 568.582,300.392 
		530.326,306.424 530.326,341.721 673.783,341.721 673.783,306.424 635.527,300.392 635.191,71.85 673.783,65.819 	"/>
</g>
</svg>
