<?xml version="1.0" encoding="iso-8859-1"?>
<!-- Generator: Adobe Illustrator 23.0.1, SVG Export Plug-In . SVG Version: 6.00 Build 0)  -->
<svg version="1.1" id="Layer_1" xmlns="http://www.w3.org/2000/svg" xmlns:xlink="http://www.w3.org/1999/xlink" x="0px" y="0px"
	 viewBox="0 0 612 288" style="enable-background:new 0 0 612 288;" xml:space="preserve">
<g>
	<path style="fill:#403B5F;" d="M157.307,173.472c-8.678,0-17.438-3.029-24.315-9.169l7.451-8.924
		c5.157,4.257,10.56,6.959,17.109,6.959c5.158,0,8.269-2.047,8.269-5.403v-0.164c0-3.192-1.965-4.83-11.543-7.286
		c-11.543-2.947-18.993-6.14-18.993-17.519v-0.164c0-10.397,8.35-17.274,20.057-17.274c8.35,0,15.473,2.62,21.285,7.286
		l-6.549,9.497c-5.076-3.521-10.07-5.649-14.9-5.649s-7.368,2.21-7.368,4.994v0.163c0,3.766,2.457,4.994,12.362,7.532
		c11.625,3.029,18.175,7.204,18.175,17.192v0.164C178.347,167.086,169.667,173.472,157.307,173.472"/>
	<rect x="185.795" y="115.347" style="fill:#403B5F;" width="12.608" height="57.306"/>
	<path style="fill:#403B5F;" d="M236.225,173.636c-17.847,0-30.127-12.525-30.127-29.471V144c0-16.292,12.689-29.636,30.045-29.636
		c10.315,0,16.537,2.783,22.513,7.859l-7.941,9.578c-4.42-3.684-8.35-5.812-14.981-5.812c-9.169,0-16.456,8.105-16.456,17.847V144
		c0,10.479,7.205,18.174,17.356,18.174c4.584,0,8.678-1.146,11.871-3.439v-8.186h-12.689v-10.888h24.887v24.887
		C254.808,169.542,246.704,173.636,236.225,173.636"/>
	<polygon style="fill:#403B5F;" points="313.506,172.653 313.506,135.24 297.378,159.718 297.052,159.718 281.087,135.486 
		281.087,172.653 268.727,172.653 268.727,115.348 282.316,115.348 297.378,139.58 312.443,115.348 326.033,115.348 
		326.033,172.653 	"/>
	<path style="fill:#403B5F;" d="M360.99,130.083l-7.614,18.584h15.228L360.99,130.083z M378.344,172.653l-5.238-12.853h-24.232
		l-5.24,12.853h-12.853l24.56-57.716h11.625l24.561,57.716H378.344z"/>
	<path style="fill:#403B5F;" d="M447.816,135.404c0-5.649-3.929-8.678-10.232-8.678h-9.741v17.519h9.987
		c6.304,0,9.986-3.765,9.986-8.678V135.404z M437.42,155.461h-9.578v17.192h-12.608v-57.306h23.413
		c13.673,0,21.941,8.104,21.941,19.811v0.164C460.588,148.584,450.273,155.461,437.42,155.461"/>
	<rect x="466.401" y="115.347" style="fill:#403B5F;" width="12.607" height="57.307"/>
</g>
</svg>
