<?xml version="1.0" encoding="iso-8859-1"?>
<!-- Generator: Adobe Illustrator 23.0.1, SVG Export Plug-In . SVG Version: 6.00 Build 0)  -->
<svg version="1.1" id="Layer_1" xmlns="http://www.w3.org/2000/svg" xmlns:xlink="http://www.w3.org/1999/xlink" x="0px" y="0px"
	 viewBox="0 0 432 432" style="enable-background:new 0 0 432 432;" xml:space="preserve">
<g>
	<rect x="55.147" y="393.796" style="fill:#403B5F;" width="101.652" height="22.338"/>
	<rect x="275.203" y="393.796" style="fill:#403B5F;" width="101.644" height="22.338"/>
	<path style="fill:#403B5F;" d="M205.245,153.243l10.126-7.362h1.228l10.134,7.362c0.818,0.594,1.923-0.203,1.61-1.168l-3.88-11.915
		l0.384-1.17l10.147-7.351c0.818-0.597,0.4-1.896-0.613-1.896h-12.53l-0.992-0.715l-3.877-11.904c-0.313-0.965-1.675-0.965-1.988,0
		l-3.856,11.899l-0.997,0.721h-12.525c-1.013,0-1.433,1.299-0.613,1.896l10.121,7.351l0.376,1.17l-3.866,11.915
		C203.322,153.041,204.427,153.843,205.245,153.243"/>
	<path style="fill:#403B5F;" d="M127.688,278.102l-3.856-11.904c-0.313-0.963-1.675-0.963-1.994,0l-3.872,11.904l-0.997,0.723
		h-12.52c-1.013,0-1.433,1.297-0.613,1.891l10.121,7.357l0.376,1.17l-3.861,11.915c-0.308,0.963,0.792,1.762,1.61,1.168
		l10.137-7.362h1.228l10.124,7.357c0.818,0.594,1.923-0.205,1.61-1.168l-3.866-11.91l0.376-1.17l10.126-7.357
		c0.818-0.594,0.395-1.891-0.618-1.891h-12.514L127.688,278.102"/>
	<path style="fill:#403B5F;" d="M189.811,278.104l-3.874-11.91c-0.31-0.965-1.673-0.965-1.986,0l-3.874,11.91l-0.997,0.721h-12.512
		c-1.007,0-1.433,1.299-0.615,1.891l10.124,7.359l0.376,1.168l-3.869,11.91c-0.31,0.965,0.794,1.767,1.612,1.17l10.137-7.365
		l1.228,0.005l10.121,7.359c0.821,0.592,1.923-0.21,1.612-1.17l-3.874-11.91l0.384-1.168l10.132-7.359
		c0.818-0.592,0.397-1.891-0.615-1.891h-12.512L189.811,278.104"/>
	<path style="fill:#403B5F;" d="M251.913,278.104l-3.869-11.91c-0.313-0.96-1.675-0.96-1.988,0l-3.872,11.91l-0.992,0.721h-12.507
		c-1.021,0-1.439,1.299-0.615,1.891l10.126,7.359l0.384,1.168l-3.874,11.904c-0.318,0.965,0.786,1.768,1.607,1.17l10.126-7.354
		l1.228-0.005l10.142,7.365c0.818,0.597,1.917-0.205,1.604-1.17l-3.872-11.91l0.376-1.168l10.139-7.359
		c0.818-0.592,0.397-1.891-0.615-1.891h-12.536L251.913,278.104"/>
	<path style="fill:#403B5F;" d="M327.549,278.825h-12.53l-0.997-0.721l-3.861-11.904c-0.313-0.965-1.67-0.965-1.988,0l-3.874,11.904
		l-0.997,0.721H290.8c-1.013,0-1.433,1.299-0.613,1.891l10.126,7.359l0.376,1.168l-3.872,11.904
		c-0.313,0.965,0.792,1.768,1.61,1.176l10.126-7.365h1.228l10.126,7.359c0.821,0.597,1.925-0.205,1.612-1.17l-3.88-11.904
		l0.384-1.168l10.137-7.359C328.98,280.124,328.562,278.825,327.549,278.825"/>
	<path style="fill:#403B5F;" d="M162.344,235.179l10.137-7.359c0.818-0.597,0.397-1.891-0.615-1.891h-12.512l-0.997-0.721
		l-3.877-11.915c-0.313-0.965-1.675-0.965-1.988,0l-3.88,11.915l-0.997,0.721h-12.501c-1.013,0-1.433,1.294-0.615,1.891
		l10.124,7.359l0.376,1.168l-3.866,11.91c-0.318,0.965,0.786,1.767,1.604,1.168l10.137-7.362h1.228l10.121,7.362
		c0.821,0.594,1.923-0.203,1.612-1.168l-3.874-11.91L162.344,235.179"/>
	<path style="fill:#403B5F;" d="M287.373,235.179l10.132-7.359c0.821-0.597,0.395-1.891-0.613-1.891h-12.52l-0.997-0.721
		l-3.872-11.91c-0.313-0.965-1.675-0.965-1.988,0l-3.866,11.904l-0.992,0.726h-12.514c-1.013,0-1.431,1.294-0.613,1.891
		l10.132,7.359l0.376,1.168l-3.866,11.91c-0.313,0.96,0.786,1.762,1.604,1.163l10.116-7.357h1.228l10.145,7.362
		c0.818,0.6,1.923-0.203,1.61-1.168l-3.877-11.91L287.373,235.179"/>
	<path style="fill:#403B5F;" d="M224.869,235.179l10.126-7.359c0.821-0.597,0.4-1.891-0.613-1.891h-12.52l-0.989-0.726
		l-3.869-11.904c-0.313-0.965-1.675-0.965-1.988,0l-3.872,11.91l-0.992,0.721h-12.525c-1.013,0-1.431,1.294-0.613,1.891
		l10.126,7.359l0.379,1.168l-3.874,11.91c-0.313,0.965,0.792,1.767,1.61,1.168l10.145-7.362h1.228l10.121,7.362
		c0.818,0.594,1.923-0.203,1.61-1.168l-3.872-11.91L224.869,235.179"/>
	<path style="fill:#403B5F;" d="M171.592,198.927l10.145-7.362l1.228,0.005l10.116,7.357c0.818,0.594,1.923-0.205,1.61-1.168
		l-3.866-11.91l0.381-1.17l10.116-7.346c0.826-0.597,0.4-1.896-0.613-1.896h-12.509l-0.989-0.721l-3.869-11.912
		c-0.313-0.963-1.675-0.963-1.988,0l-3.872,11.912l-0.997,0.721h-12.52c-1.013,0-1.431,1.299-0.613,1.896l10.132,7.346l0.379,1.17
		l-3.874,11.91C169.669,198.722,170.774,199.522,171.592,198.927"/>
	<path style="fill:#403B5F;" d="M241.182,185.85l-3.869,11.91c-0.313,0.96,0.792,1.762,1.612,1.17l10.121-7.365h1.228l10.137,7.365
		c0.823,0.597,1.923-0.205,1.61-1.17l-3.866-11.91l0.376-1.168l10.116-7.354c0.826-0.592,0.4-1.891-0.613-1.891h-12.514
		l-0.994-0.721l-3.869-11.91c-0.318-0.965-1.681-0.965-1.994,0l-3.856,11.91l-0.997,0.721h-12.512c-1.013,0-1.439,1.299-0.621,1.891
		l10.121,7.354L241.182,185.85"/>
	<path style="fill:#403B5F;" d="M135.574,183.988l80.424-139.311l80.429,139.311l80.421,139.303h-160.85H55.153L135.574,183.988z
		 M215.997,0l-19.342,33.511l-80.429,139.303L35.802,312.118l-19.348,33.511h38.698h160.845h160.85h38.698l-19.348-33.511
		l-80.424-139.303L235.348,33.511L215.997,0z"/>
	<polygon style="fill:#403B5F;" points="204.803,377.934 204.803,393.767 188.972,393.767 188.972,416.164 204.803,416.164 
		204.803,432 227.197,432 227.197,416.164 243.033,416.164 243.033,393.767 227.197,393.767 227.197,377.934 	"/>
</g>
</svg>
